# xmcd
#
# Track frame offsets: 
#        150
#        14637
#        29480
#        39462
#        51092
#        63910
#        77470
#        90857
#        101775
#        114440
#        124140
#        135007
#        147222
#        159425
#        170442
#        181855
#        192805
#        210087
#
# Disc length: 2980 seconds
#
# Revision: 5
# Processed by: cddbd v1.5.2PL0 Copyright (c) Steve Scherf et al.
# Submitted via: ExactAudioCopyFreeDBPlugin 1.0
#
DISCID=db0ba212
DTITLE=Various Artist - Night Train to Nashville:  Music City Rhythm 
DTITLE=& Blues, 1945-1970
DYEAR=2004
DGENRE=Rhythm and Blues
TTITLE0=John Richbourg - Shy Guy Douglas - WLAC Air Check - Monkey Doi
TTITLE0=n' Woman
TTITLE1=Etta James - What'd I Say (live)
TTITLE2=Johnny Jones and the Imperial 7 - Really (Part 1)
TTITLE3=Frank Howard and the Commanders - Just Like Him
TTITLE4=Arthur Alexander - Anna (Go to Him)
TTITLE5=Joe Henderson - Snap Your Fingers
TTITLE6=Ruth Brown - Mama, He Treats Your Daughter Mean (Nashville Ver
TTITLE6=sion)
TTITLE7=Sam Baker - Something Tells Me
TTITLE8=Bobby Hebb - Sunny
TTITLE9=Joe Tex - I Want To (Do Everything for You)
TTITLE10=The Hytones - Bigger and Better
TTITLE11=The Avons - Since I Met You Baby
TTITLE12=Joe Simon - The Chokin' Kind
TTITLE13=Clifford Curry - She Shot a Hole in My Soul
TTITLE14=The Valentines - Gotta Get Yourself Together
TTITLE15=Peggy Scott and Jo Jo Benson - Soul Shake
TTITLE16=Johnny Adams - Reconsider Me
TTITLE17=Robert Knight - Everlasting Love
EXTD=
EXTT0=
EXTT1=
EXTT2=
EXTT3=
EXTT4=
EXTT5=
EXTT6=
EXTT7=
EXTT8=
EXTT9=
EXTT10=
EXTT11=
EXTT12=
EXTT13=
EXTT14=
EXTT15=
EXTT16=
EXTT17=
PLAYORDER=
